<svg width="18" height="188" viewBox="0 0 18 188" fill="none" xmlns="http://www.w3.org/2000/svg">
<path opacity="0.2" d="M1 13.0871V10.5431H8.248V2.57507H1V0.0310684L16.84 0.0310684V2.57507H10.528V10.5431H16.84V13.0871H1ZM14.56 29.9096V22.0376H10.504V27.9416H8.296V22.0376H3.28V30.1976H1V19.4936H16.84V29.9096H14.56ZM3.28 38.1016V45.3496H1V35.5576H16.84L16.84 38.1016H3.28ZM3.28 52.8532V60.1012H1V50.3092H16.84V52.8532H3.28ZM17.104 72.0532C17.104 73.2052 16.896 74.2852 16.48 75.2932C16.064 76.3012 15.488 77.1812 14.752 77.9332C14.016 78.6852 13.144 79.2772 12.136 79.7092C11.144 80.1572 10.072 80.3812 8.92 80.3812C7.752 80.3812 6.664 80.1572 5.656 79.7092C4.664 79.2772 3.8 78.6852 3.064 77.9332C2.344 77.1812 1.776 76.3012 1.36 75.2932C0.944002 74.2852 0.736002 73.2052 0.736002 72.0532C0.736002 70.9012 0.944002 69.8132 1.36 68.7892C1.776 67.7812 2.352 66.9012 3.088 66.1492C3.824 65.4132 4.688 64.8292 5.68 64.3972C6.688 63.9652 7.768 63.7492 8.92 63.7492C10.072 63.7492 11.144 63.9652 12.136 64.3972C13.144 64.8292 14.016 65.4212 14.752 66.1732C15.488 66.9252 16.064 67.8052 16.48 68.8132C16.896 69.8212 17.104 70.9012 17.104 72.0532ZM14.776 72.0772C14.776 71.2612 14.624 70.5012 14.32 69.7972C14.032 69.1092 13.632 68.5092 13.12 67.9972C12.608 67.5012 11.992 67.1092 11.272 66.8212C10.552 66.5332 9.776 66.3892 8.944 66.3892C8.096 66.3892 7.312 66.5332 6.592 66.8212C5.872 67.1092 5.248 67.5012 4.72 67.9972C4.208 68.5092 3.8 69.1092 3.496 69.7972C3.208 70.5012 3.064 71.2612 3.064 72.0772C3.064 72.8932 3.208 73.6452 3.496 74.3332C3.8 75.0212 4.208 75.6212 4.72 76.1332C5.248 76.6452 5.872 77.0452 6.592 77.3332C7.312 77.6212 8.096 77.7652 8.944 77.7652C9.776 77.7652 10.544 77.6212 11.248 77.3332C11.968 77.0452 12.584 76.6452 13.096 76.1332C13.624 75.6212 14.032 75.0212 14.32 74.3332C14.624 73.6452 14.776 72.8932 14.776 72.0772ZM6.136 109.391L16.84 113.351V116.159L0.736002 109.991V109.127L11.968 104.399L0.736002 99.671V98.807L16.84 92.639V95.447L6.112 99.383L17.104 103.967V104.831L6.136 109.391ZM17.104 128.261C17.104 129.413 16.896 130.493 16.48 131.501C16.064 132.509 15.488 133.389 14.752 134.141C14.016 134.893 13.144 135.485 12.136 135.917C11.144 136.365 10.072 136.589 8.92 136.589C7.752 136.589 6.664 136.365 5.656 135.917C4.664 135.485 3.8 134.893 3.064 134.141C2.344 133.389 1.776 132.509 1.36 131.501C0.944002 130.493 0.736002 129.413 0.736002 128.261C0.736002 127.109 0.944002 126.021 1.36 124.997C1.776 123.989 2.352 123.109 3.088 122.357C3.824 121.621 4.688 121.037 5.68 120.605C6.688 120.173 7.768 119.957 8.92 119.957C10.072 119.957 11.144 120.173 12.136 120.605C13.144 121.037 14.016 121.629 14.752 122.381C15.488 123.133 16.064 124.013 16.48 125.021C16.896 126.029 17.104 127.109 17.104 128.261ZM14.776 128.285C14.776 127.469 14.624 126.709 14.32 126.005C14.032 125.317 13.632 124.717 13.12 124.205C12.608 123.709 11.992 123.317 11.272 123.029C10.552 122.741 9.776 122.597 8.944 122.597C8.096 122.597 7.312 122.741 6.592 123.029C5.872 123.317 5.248 123.709 4.72 124.205C4.208 124.717 3.8 125.317 3.496 126.005C3.208 126.709 3.064 127.469 3.064 128.285C3.064 129.101 3.208 129.853 3.496 130.541C3.8 131.229 4.208 131.829 4.72 132.341C5.248 132.853 5.872 133.253 6.592 133.541C7.312 133.829 8.096 133.973 8.944 133.973C9.776 133.973 10.544 133.829 11.248 133.541C11.968 133.253 12.584 132.853 13.096 132.341C13.624 131.829 14.032 131.229 14.32 130.541C14.624 129.853 14.776 129.101 14.776 128.285ZM16.84 147.804C16.84 148.62 16.72 149.356 16.48 150.012C16.256 150.684 15.928 151.252 15.496 151.716C15.064 152.196 14.552 152.564 13.96 152.82C13.368 153.076 12.712 153.204 11.992 153.204C10.936 153.204 10.016 152.932 9.232 152.388C8.464 151.844 7.896 151.092 7.528 150.132L1 154.908V152.004L7.12 147.468V144.588H1V142.044H16.84L16.84 147.804ZM14.584 144.588H9.376V147.756C9.376 148.668 9.616 149.364 10.096 149.844C10.576 150.34 11.2 150.588 11.968 150.588C12.736 150.588 13.36 150.34 13.84 149.844C14.336 149.364 14.584 148.668 14.584 147.756V144.588ZM3.28 162.128V169.376H1V159.584H16.84V162.128H3.28ZM16.84 179.28C16.84 180.592 16.648 181.776 16.264 182.832C15.88 183.904 15.336 184.816 14.632 185.568C13.944 186.32 13.112 186.896 12.136 187.296C11.176 187.712 10.112 187.92 8.944 187.92C7.792 187.92 6.728 187.712 5.752 187.296C4.792 186.896 3.952 186.32 3.232 185.568C2.528 184.816 1.976 183.904 1.576 182.832C1.192 181.776 1 180.592 1 179.28V174.336H16.84V179.28ZM14.536 176.88H3.28V179.256C3.28 180.184 3.416 181.024 3.688 181.776C3.976 182.528 4.368 183.16 4.864 183.672C5.376 184.184 5.976 184.576 6.664 184.848C7.368 185.136 8.128 185.28 8.944 185.28C9.792 185.28 10.56 185.136 11.248 184.848C11.936 184.576 12.52 184.184 13 183.672C13.496 183.16 13.872 182.528 14.128 181.776C14.4 181.024 14.536 180.184 14.536 179.256V176.88Z" fill="#D9D9D9"/>
</svg>
