<svg width="82" height="82" viewBox="0 0 82 82" fill="none" xmlns="http://www.w3.org/2000/svg">
<path d="M0 0H82V82H0V0Z" fill="#A5A5A5"/>
<path d="M14.0003 53.3198L20.2752 49.5222C21.486 51.6686 22.5873 53.4848 25.2289 53.4848C27.7609 53.4848 29.3577 52.4944 29.3577 48.6417V22.4407H37.0635V48.7506C37.0635 56.7318 32.385 60.3648 25.5591 60.3648C19.3947 60.3648 15.8165 57.1722 14 53.3192L14.0003 53.3198ZM41.249 52.4941L47.5233 48.8614C49.1751 51.5588 51.3218 53.5402 55.1195 53.5402C58.3127 53.5402 60.3486 51.9438 60.3486 49.7419C60.3486 47.1 58.2569 46.1641 54.7341 44.6234L52.8081 43.7969C47.2484 41.4308 43.5607 38.4583 43.5607 32.1834C43.5607 26.4037 47.964 22 54.8446 22C59.7435 22 63.2663 23.7066 65.798 28.1651L59.798 32.0184C58.4767 29.6516 57.0461 28.716 54.8443 28.716C52.5874 28.716 51.1562 30.1471 51.1562 32.0184C51.1562 34.3301 52.5874 35.2664 55.8898 36.6975L57.8162 37.523C64.3666 40.3305 68.0543 43.1925 68.0543 49.6321C68.0543 56.5681 62.6052 60.3658 55.2844 60.3658C48.129 60.3658 43.5053 56.9531 41.2487 52.4944" fill="#D9D9D9"/>
</svg>
