<svg width="60" height="71" viewBox="0 0 60 71" fill="none" xmlns="http://www.w3.org/2000/svg">
<path d="M12.8813 1.32C14.5453 1.32 16.0653 1.56 17.4413 2.04C18.8493 2.52 20.0493 3.208 21.0413 4.104C22.0653 5 22.8493 6.088 23.3933 7.368C23.9693 8.616 24.2573 10.008 24.2573 11.544C24.2573 13.624 23.7613 15.448 22.7693 17.016C21.7773 18.552 20.4173 19.736 18.6893 20.568L27.6173 33H20.3213L12.1133 21.816H7.40925V33H0.92925V1.32H12.8813ZM7.40925 7.032V16.104H12.8333C14.3693 16.104 15.5533 15.688 16.3853 14.856C17.2173 14.024 17.6333 12.92 17.6333 11.544C17.6333 10.2 17.2173 9.112 16.3853 8.28C15.5533 7.448 14.3693 7.032 12.8333 7.032H7.40925ZM59.0404 33H52.0804L50.3044 28.872H37.3444L35.5684 33H28.6084L42.7684 0.743998H44.8804L59.0404 33ZM39.6004 23.544H48.0004L43.8244 12.84L39.6004 23.544ZM25.8394 45.176H11.4874V53.096H23.2474V58.952H11.4874V71H5.00738V39.32H25.8394V45.176ZM54.9623 71H48.0023L46.2263 66.872H33.2663L31.4903 71H24.5303L38.6903 38.744H40.8023L54.9623 71ZM35.5223 61.544H43.9223L39.7463 50.84L35.5223 61.544Z" fill="#D9D9D9"/>
<path d="M17.4412 2.04L17.1119 2.98422L17.1186 2.98651L17.4412 2.04ZM21.0413 4.104L20.371 4.8461L20.3768 4.85138L20.3827 4.85657L21.0413 4.104ZM23.3933 7.368L22.4729 7.75914L22.4789 7.77319L22.4853 7.78706L23.3933 7.368ZM22.7693 17.016L23.6093 17.5585L23.6143 17.5506L22.7693 17.016ZM18.6893 20.568L18.2554 19.667L17.1822 20.1838L17.877 21.1513L18.6893 20.568ZM27.6173 33V34H29.5666L28.4295 32.4167L27.6173 33ZM20.3213 33L19.5151 33.5917L19.8147 34H20.3213V33ZM12.1133 21.816L12.9194 21.2243L12.6198 20.816H12.1133V21.816ZM7.40925 21.816V20.816H6.40925V21.816H7.40925ZM7.40925 33V34H8.40925V33H7.40925ZM0.92925 33H-0.0707498V34H0.92925V33ZM0.92925 1.32V0.319999H-0.0707498V1.32H0.92925ZM7.40925 7.032V6.032H6.40925V7.032H7.40925ZM7.40925 16.104H6.40925V17.104H7.40925V16.104ZM16.3853 14.856L17.0924 15.5631V15.5631L16.3853 14.856ZM16.3853 8.28L17.0924 7.57289L17.0924 7.57289L16.3853 8.28ZM12.8813 2.32C14.4488 2.32 15.8556 2.54597 17.1119 2.9842L17.7706 1.0958C16.2749 0.574031 14.6417 0.319999 12.8813 0.319999V2.32ZM17.1186 2.98651C18.4126 3.42764 19.4906 4.0509 20.371 4.8461L21.7115 3.36189C20.6079 2.3651 19.2859 1.61235 17.7639 1.09349L17.1186 2.98651ZM20.3827 4.85657C21.2908 5.65111 21.9865 6.61463 22.4729 7.75914L24.3136 6.97686C23.712 5.56137 22.8397 4.34889 21.6998 3.35142L20.3827 4.85657ZM22.4853 7.78706C22.9939 8.88899 23.2573 10.1356 23.2573 11.544H25.2573C25.2573 9.88039 24.9446 8.34301 24.3012 6.94894L22.4853 7.78706ZM23.2573 11.544C23.2573 13.4583 22.8031 15.0922 21.9242 16.4814L23.6143 17.5506C24.7194 15.8038 25.2573 13.7897 25.2573 11.544H23.2573ZM21.9292 16.4735C21.042 17.8472 19.8261 18.9108 18.2554 19.667L19.1231 21.469C21.0084 20.5612 22.5125 19.2568 23.6093 17.5585L21.9292 16.4735ZM17.877 21.1513L26.805 33.5833L28.4295 32.4167L19.5015 19.9847L17.877 21.1513ZM27.6173 32H20.3213V34H27.6173V32ZM21.1274 32.4083L12.9194 21.2243L11.3071 22.4077L19.5151 33.5917L21.1274 32.4083ZM12.1133 20.816H7.40925V22.816H12.1133V20.816ZM6.40925 21.816V33H8.40925V21.816H6.40925ZM7.40925 32H0.92925V34H7.40925V32ZM1.92925 33V1.32H-0.0707498V33H1.92925ZM0.92925 2.32H12.8813V0.319999H0.92925V2.32ZM6.40925 7.032V16.104H8.40925V7.032H6.40925ZM7.40925 17.104H12.8333V15.104H7.40925V17.104ZM12.8333 17.104C14.5502 17.104 16.0206 16.6349 17.0924 15.5631L15.6781 14.1489C15.0859 14.7411 14.1883 15.104 12.8333 15.104V17.104ZM17.0924 15.5631C18.1436 14.5119 18.6333 13.1367 18.6333 11.544H16.6333C16.6333 12.7033 16.2909 13.5361 15.6781 14.1489L17.0924 15.5631ZM18.6333 11.544C18.6333 9.97578 18.139 8.61955 17.0924 7.57289L15.6781 8.9871C16.2955 9.60444 16.6333 10.4242 16.6333 11.544H18.6333ZM17.0924 7.57289C16.0206 6.50114 14.5502 6.032 12.8333 6.032V8.032C14.1883 8.032 15.0859 8.39486 15.6781 8.98711L17.0924 7.57289ZM12.8333 6.032H7.40925V8.032H12.8333V6.032ZM59.0404 33V34H60.5715L59.956 32.598L59.0404 33ZM52.0804 33L51.1618 33.3952L51.422 34H52.0804V33ZM50.3044 28.872L51.223 28.4768L50.9628 27.872H50.3044V28.872ZM37.3444 28.872V27.872H36.686L36.4258 28.4768L37.3444 28.872ZM35.5684 33V34H36.2268L36.487 33.3952L35.5684 33ZM28.6084 33L27.6927 32.598L27.0773 34H28.6084V33ZM42.7684 0.743998V-0.256002H42.1153L41.8527 0.342035L42.7684 0.743998ZM44.8804 0.743998L45.796 0.342035L45.5335 -0.256002H44.8804V0.743998ZM39.6004 23.544L38.6702 23.1769L38.1307 24.544H39.6004V23.544ZM48.0004 23.544V24.544H49.4639L48.932 23.1805L48.0004 23.544ZM43.8244 12.84L44.756 12.4765L43.8297 10.1023L42.8942 12.4729L43.8244 12.84ZM59.0404 32H52.0804V34H59.0404V32ZM52.999 32.6048L51.223 28.4768L49.3858 29.2672L51.1618 33.3952L52.999 32.6048ZM50.3044 27.872H37.3444V29.872H50.3044V27.872ZM36.4258 28.4768L34.6498 32.6048L36.487 33.3952L38.263 29.2672L36.4258 28.4768ZM35.5684 32H28.6084V34H35.5684V32ZM29.524 33.402L43.684 1.14596L41.8527 0.342035L27.6927 32.598L29.524 33.402ZM42.7684 1.744H44.8804V-0.256002H42.7684V1.744ZM43.9647 1.14596L58.1247 33.402L59.956 32.598L45.796 0.342035L43.9647 1.14596ZM39.6004 24.544H48.0004V22.544H39.6004V24.544ZM48.932 23.1805L44.756 12.4765L42.8928 13.2035L47.0688 23.9075L48.932 23.1805ZM42.8942 12.4729L38.6702 23.1769L40.5306 23.9111L44.7546 13.2071L42.8942 12.4729ZM25.8394 45.176V46.176H26.8394V45.176H25.8394ZM11.4874 45.176V44.176H10.4874V45.176H11.4874ZM11.4874 53.096H10.4874V54.096H11.4874V53.096ZM23.2474 53.096H24.2474V52.096H23.2474V53.096ZM23.2474 58.952V59.952H24.2474V58.952H23.2474ZM11.4874 58.952V57.952H10.4874V58.952H11.4874ZM11.4874 71V72H12.4874V71H11.4874ZM5.00738 71H4.00738V72H5.00738V71ZM5.00738 39.32V38.32H4.00738V39.32H5.00738ZM25.8394 39.32H26.8394V38.32H25.8394V39.32ZM25.8394 44.176H11.4874V46.176H25.8394V44.176ZM10.4874 45.176V53.096H12.4874V45.176H10.4874ZM11.4874 54.096H23.2474V52.096H11.4874V54.096ZM22.2474 53.096V58.952H24.2474V53.096H22.2474ZM23.2474 57.952H11.4874V59.952H23.2474V57.952ZM10.4874 58.952V71H12.4874V58.952H10.4874ZM11.4874 70H5.00738V72H11.4874V70ZM6.00738 71V39.32H4.00738V71H6.00738ZM5.00738 40.32H25.8394V38.32H5.00738V40.32ZM24.8394 39.32V45.176H26.8394V39.32H24.8394ZM54.9622 71V72H56.4934L55.8779 70.598L54.9622 71ZM48.0023 71L47.0837 71.3952L47.3439 72H48.0023V71ZM46.2262 66.872L47.1448 66.4768L46.8846 65.872H46.2262V66.872ZM33.2663 66.872V65.872H32.6079L32.3477 66.4768L33.2663 66.872ZM31.4902 71V72H32.1486L32.4088 71.3952L31.4902 71ZM24.5303 71L23.6146 70.598L22.9991 72H24.5303V71ZM38.6903 38.744V37.744H38.0371L37.7746 38.342L38.6903 38.744ZM40.8022 38.744L41.7179 38.342L41.4554 37.744H40.8022V38.744ZM35.5223 61.544L34.5921 61.1769L34.0526 62.544H35.5223V61.544ZM43.9223 61.544V62.544H45.3858L44.8539 61.1805L43.9223 61.544ZM39.7463 50.84L40.6779 50.4765L39.7516 48.1023L38.8161 50.4729L39.7463 50.84ZM54.9622 70H48.0023V72H54.9622V70ZM48.9208 70.6048L47.1448 66.4768L45.3077 67.2672L47.0837 71.3952L48.9208 70.6048ZM46.2262 65.872H33.2663V67.872H46.2262V65.872ZM32.3477 66.4768L30.5717 70.6048L32.4088 71.3952L34.1848 67.2672L32.3477 66.4768ZM31.4902 70H24.5303V72H31.4902V70ZM25.4459 71.402L39.6059 39.146L37.7746 38.342L23.6146 70.598L25.4459 71.402ZM38.6903 39.744H40.8022V37.744H38.6903V39.744ZM39.8866 39.146L54.0466 71.402L55.8779 70.598L41.7179 38.342L39.8866 39.146ZM35.5223 62.544H43.9223V60.544H35.5223V62.544ZM44.8539 61.1805L40.6779 50.4765L38.8146 51.2035L42.9906 61.9075L44.8539 61.1805ZM38.8161 50.4729L34.5921 61.1769L36.4524 61.9111L40.6764 51.2071L38.8161 50.4729Z" fill="#D9D9D9"/>
</svg>
