<svg width="82" height="82" viewBox="0 0 82 82" fill="none" xmlns="http://www.w3.org/2000/svg">
<g clip-path="url(#clip0_325_13)">
<rect width="82" height="82" fill="#A5A5A5"/>
<path d="M0 0H82V82H0V0Z" stroke="#A5A5A5" stroke-width="8"/>
<path fill-rule="evenodd" clip-rule="evenodd" d="M13.7086 52.0394C12.5668 52.0394 11.8149 52.6521 11.8149 53.469C11.8149 54.1931 12.2605 54.6758 13.2723 54.9543C14.1913 55.2142 14.3863 55.3442 14.3863 55.7526C14.3863 56.1239 14.0428 56.3467 13.5137 56.3467C13.0124 56.3467 12.5575 56.1518 12.1769 55.864L11.5828 56.5324C12.0377 56.9408 12.6968 57.2286 13.5415 57.2286C14.6648 57.2286 15.6116 56.6902 15.6116 55.6691C15.6116 54.7965 15.0454 54.388 14.0428 54.1188C13.2073 53.8867 13.0124 53.7382 13.0124 53.4133C13.0124 53.1162 13.2816 52.9213 13.755 52.9213C14.1913 52.9213 14.5812 53.0605 14.9897 53.3205L15.4538 52.6242C14.9897 52.2622 14.4141 52.0394 13.7086 52.0394ZM18.9721 56.0961L19.3898 56.8573C19.0371 57.1079 18.5915 57.2286 18.1552 57.2286C17.1897 57.2193 16.6792 56.6716 16.6792 55.6226V53.0327H15.9087V52.1786H16.6792V51.0925L17.8674 50.9533V52.1786H19.0092L18.8885 53.0327H17.8674V55.5948C17.8674 56.0775 18.0252 56.2724 18.3873 56.2724C18.5729 56.2724 18.7586 56.2168 18.9721 56.0961ZM24.0313 52.1786L22.4347 57.1079C22.0633 58.259 21.3393 59.0017 19.8818 59.1131L19.7611 58.2497C20.7359 58.1012 21.0515 57.7856 21.33 57.0894H20.9215L19.362 52.1786H20.6245L21.692 56.3003L22.806 52.1786H24.0313ZM25.9158 57.2286C26.2221 57.2286 26.5006 57.1543 26.7048 57.0615L26.4542 56.226C26.3706 56.2539 26.2871 56.2724 26.1757 56.2724C25.9808 56.2724 25.8972 56.1611 25.8972 55.929V50.0807L24.709 50.2106V55.9661C24.709 56.7737 25.1639 57.2286 25.9158 57.2286ZM31.5227 54.518C31.5227 54.6758 31.5042 54.8707 31.4949 55.0007H28.4129C28.4965 56.0032 28.9699 56.3282 29.6197 56.3282C30.056 56.3282 30.418 56.1889 30.8451 55.8919L31.3371 56.5695C30.8543 56.9594 30.2602 57.2286 29.5176 57.2286C27.9952 57.2286 27.1783 56.2168 27.1783 54.6665C27.1783 53.1719 27.9673 52.0394 29.3598 52.0394C30.7337 52.0394 31.5227 52.9677 31.5227 54.518ZM30.3438 54.2302V54.1745C30.3438 53.3669 30.056 52.8842 29.3876 52.8842C28.8306 52.8842 28.4779 53.2555 28.4129 54.2302H30.3438ZM35.533 50.0807L36.7212 50.2106V57.0894H35.6722L35.5887 56.4674C35.2916 56.913 34.8182 57.2286 34.187 57.2286C32.9616 57.2286 32.3211 56.1982 32.3211 54.6386C32.3211 53.1255 33.0823 52.0394 34.2983 52.0394C34.8182 52.0394 35.2266 52.2622 35.533 52.5685V50.0807ZM34.5211 56.3282C34.9574 56.3282 35.2545 56.1146 35.533 55.6969V53.4504C35.2731 53.1348 34.9946 52.9306 34.5954 52.9306C33.9827 52.9306 33.5743 53.4504 33.5743 54.6294C33.5743 55.8919 33.9363 56.3282 34.5211 56.3282ZM13.7488 61.3224C12.3378 61.3224 11.4559 62.39 11.4559 63.9588C11.4559 65.5276 12.3378 66.5116 13.7581 66.5116C14.3894 66.5116 14.8999 66.3074 15.3455 65.9454L14.8164 65.1934C14.4543 65.4255 14.1944 65.5462 13.8231 65.5462C13.1547 65.5462 12.7184 65.1284 12.7184 63.9402C12.7184 62.7613 13.1362 62.26 13.8231 62.26C14.1944 62.26 14.4915 62.3714 14.8164 62.6128L15.3455 61.898C14.8814 61.4988 14.3894 61.3224 13.7488 61.3224ZM18.214 61.3224C19.6621 61.3224 20.5162 62.3064 20.5162 63.9124C20.5162 65.4626 19.6528 66.5116 18.2047 66.5116C16.7565 66.5116 15.8932 65.5276 15.8932 63.9124C15.8932 62.3714 16.7565 61.3224 18.214 61.3224ZM18.214 62.2229C17.5177 62.2229 17.1464 62.752 17.1464 63.9124C17.1464 65.0913 17.5085 65.6112 18.2047 65.6112C18.9009 65.6112 19.263 65.082 19.263 63.9124C19.263 62.7427 18.9009 62.2229 18.214 62.2229ZM26.8379 61.3224C26.1881 61.3224 25.7332 61.638 25.3619 62.1486C25.1762 61.6287 24.7492 61.3224 24.1737 61.3224C23.5517 61.3224 23.1061 61.6102 22.7534 62.1022L22.6605 61.4617H21.6301V66.3724H22.8183V62.9562C23.0876 62.5014 23.3382 62.2136 23.7559 62.2136C24.0437 62.2136 24.2943 62.39 24.2943 63.0026V66.3724H25.4826V62.9562C25.7518 62.5014 26.0024 62.2136 26.4109 62.2136C26.7079 62.2136 26.9493 62.39 26.9493 63.0026V66.3724H28.1375V62.817C28.1375 61.8887 27.6177 61.3224 26.8379 61.3224ZM32.0642 61.3224C33.3453 61.3224 33.8837 62.3343 33.8837 63.9031C33.8837 65.4069 33.1875 66.5116 31.9436 66.5116C31.4423 66.5116 31.0153 66.3352 30.7089 65.9732V68.2661L29.5207 68.3961V61.4617H30.5604L30.6254 62.0651C31.0153 61.5545 31.5351 61.3224 32.0642 61.3224ZM31.6094 65.6019C32.2592 65.6019 32.6398 65.1006 32.6398 63.9124C32.6398 62.6684 32.3056 62.2136 31.7115 62.2136C31.2937 62.2136 30.941 62.5014 30.7089 62.882V65.0913C30.941 65.4348 31.238 65.6019 31.6094 65.6019ZM37.0585 61.3224C38.5066 61.3224 39.3607 62.3064 39.3607 63.9124C39.3607 65.4626 38.4974 66.5116 37.0492 66.5116C35.6011 66.5116 34.7377 65.5276 34.7377 63.9124C34.7377 62.3714 35.6011 61.3224 37.0585 61.3224ZM37.0585 62.2229C36.3623 62.2229 35.991 62.752 35.991 63.9124C35.991 65.0913 36.353 65.6112 37.0492 65.6112C37.7454 65.6112 38.1075 65.082 38.1075 63.9124C38.1075 62.7427 37.7454 62.2229 37.0585 62.2229ZM43.0925 61.3224C42.4705 61.3224 41.9785 61.6102 41.5979 62.1022L41.5051 61.4617H40.4746V66.3724H41.6629V62.9562C41.9506 62.5014 42.2663 62.2136 42.6933 62.2136C43.0646 62.2136 43.2967 62.39 43.2967 63.0026V66.3724H44.4849V62.817C44.4849 61.8794 43.9743 61.3224 43.0925 61.3224ZM49.8969 63.801C49.8969 63.9588 49.8783 64.1537 49.8691 64.2837H46.7871C46.8706 65.2863 47.3441 65.6112 47.9939 65.6112C48.4302 65.6112 48.7922 65.4719 49.2193 65.1749L49.7113 65.8525C49.2285 66.2424 48.6344 66.5116 47.8918 66.5116C46.3694 66.5116 45.5525 65.4998 45.5525 63.9495C45.5525 62.4549 46.3415 61.3224 47.734 61.3224C49.1079 61.3224 49.8969 62.2507 49.8969 63.801ZM48.718 63.5132V63.4575C48.718 62.6499 48.4302 62.1672 47.7618 62.1672C47.2048 62.1672 46.8521 62.5385 46.7871 63.5132H48.718ZM53.5823 61.3224C52.9603 61.3224 52.4683 61.6102 52.0877 62.1022L51.9949 61.4617H50.9645V66.3724H52.1527V62.9562C52.4405 62.5014 52.7561 62.2136 53.1831 62.2136C53.5544 62.2136 53.7865 62.39 53.7865 63.0026V66.3724H54.9747V62.817C54.9747 61.8794 54.4642 61.3224 53.5823 61.3224ZM58.7529 65.3791C58.5394 65.4998 58.3537 65.5555 58.1681 65.5555C57.806 65.5555 57.6482 65.3605 57.6482 64.8778V62.3157H58.6694L58.79 61.4617H57.6482V60.2363L56.46 60.3755V61.4617H55.6895V62.3157H56.46V64.9057C56.46 65.9546 56.9706 66.5023 57.936 66.5116C58.3723 66.5116 58.8179 66.3909 59.1707 66.1403L58.7529 65.3791ZM61.3893 61.3224C60.2475 61.3224 59.4956 61.9351 59.4956 62.752C59.4956 63.4761 59.9411 63.9588 60.953 64.2373C61.872 64.4972 62.067 64.6272 62.067 65.0356C62.067 65.4069 61.7235 65.6297 61.1944 65.6297C60.6931 65.6297 60.2382 65.4348 59.8576 65.147L59.2635 65.8154C59.7183 66.2238 60.3774 66.5116 61.2222 66.5116C62.3454 66.5116 63.2923 65.9732 63.2923 64.9521C63.2923 64.0795 62.726 63.671 61.7235 63.4018C60.888 63.1697 60.6931 63.0212 60.6931 62.6963C60.6931 62.3992 60.9623 62.2043 61.4357 62.2043C61.872 62.2043 62.2619 62.3435 62.6703 62.6035L63.1345 61.9072C62.6703 61.5452 62.0948 61.3224 61.3893 61.3224ZM22.8668 15.3674L13.5322 21.1692L22.8668 27.0743L21.9127 28.2604L12.1914 22.1749V20.1378L22.0159 14.0523L22.8668 15.3674ZM70.8291 19.9057V21.917L61.1077 28.0026L60.1536 26.7391L69.4624 20.9114L60.1536 15.0579L60.9788 13.7944" fill="#D9D9D9"/>
</g>
<defs>
<clipPath id="clip0_325_13">
<rect width="82" height="82" fill="white"/>
</clipPath>
</defs>
</svg>
